<?xml version="1.0" encoding="UTF-8"?>
<svg id="svg2" xmlns="http://www.w3.org/2000/svg" xmlns:svg="http://www.w3.org/2000/svg" xmlns:sodipodi="http://sodipodi.sourceforge.net/DTD/sodipodi-0.dtd" xmlns:rdf="http://www.w3.org/1999/02/22-rdf-syntax-ns#" xmlns:inkscape="http://www.inkscape.org/namespaces/inkscape" xmlns:dc="http://purl.org/dc/elements/1.1/" xmlns:cc="http://creativecommons.org/ns#" version="1.1" viewBox="0 0 191.2 170.5">
  <!-- Generator: Adobe Illustrator 29.2.0, SVG Export Plug-In . SVG Version: 2.1.0 Build 108)  -->
  <g id="_x3C_defs">
    <inkscape:perspective id="perspective10" inkscape:persp3d-origin="372.04724 : 350.78739 : 1" inkscape:vp_x="0 : 526.18109 : 1" inkscape:vp_y="0 : 1000 : 0" inkscape:vp_z="744.09448 : 526.18109 : 1" sodipodi:type="inkscape:persp3d"/>
    <inkscape:perspective id="perspective2824" inkscape:persp3d-origin="0.5 : 0.33333333 : 1" inkscape:vp_x="0 : 0.5 : 1" inkscape:vp_y="0 : 1000 : 0" inkscape:vp_z="1 : 0.5 : 1" sodipodi:type="inkscape:persp3d"/>
    <inkscape:perspective id="perspective2840" inkscape:persp3d-origin="0.5 : 0.33333333 : 1" inkscape:vp_x="0 : 0.5 : 1" inkscape:vp_y="0 : 1000 : 0" inkscape:vp_z="1 : 0.5 : 1" sodipodi:type="inkscape:persp3d"/>
    <inkscape:perspective id="perspective2878" inkscape:persp3d-origin="0.5 : 0.33333333 : 1" inkscape:vp_x="0 : 0.5 : 1" inkscape:vp_y="0 : 1000 : 0" inkscape:vp_z="1 : 0.5 : 1" sodipodi:type="inkscape:persp3d"/>
    <inkscape:perspective id="perspective2894" inkscape:persp3d-origin="0.5 : 0.33333333 : 1" inkscape:vp_x="0 : 0.5 : 1" inkscape:vp_y="0 : 1000 : 0" inkscape:vp_z="1 : 0.5 : 1" sodipodi:type="inkscape:persp3d"/>
    <inkscape:perspective id="perspective2910" inkscape:persp3d-origin="0.5 : 0.33333333 : 1" inkscape:vp_x="0 : 0.5 : 1" inkscape:vp_y="0 : 1000 : 0" inkscape:vp_z="1 : 0.5 : 1" sodipodi:type="inkscape:persp3d"/>
    <inkscape:perspective id="perspective2926" inkscape:persp3d-origin="0.5 : 0.33333333 : 1" inkscape:vp_x="0 : 0.5 : 1" inkscape:vp_y="0 : 1000 : 0" inkscape:vp_z="1 : 0.5 : 1" sodipodi:type="inkscape:persp3d"/>
    <inkscape:perspective id="perspective2976" inkscape:persp3d-origin="0.5 : 0.33333333 : 1" inkscape:vp_x="0 : 0.5 : 1" inkscape:vp_y="0 : 1000 : 0" inkscape:vp_z="1 : 0.5 : 1" sodipodi:type="inkscape:persp3d"/>
    <inkscape:perspective id="perspective3020" inkscape:persp3d-origin="0.5 : 0.33333333 : 1" inkscape:vp_x="0 : 0.5 : 1" inkscape:vp_y="0 : 1000 : 0" inkscape:vp_z="1 : 0.5 : 1" sodipodi:type="inkscape:persp3d"/>
    <inkscape:perspective id="perspective3036" inkscape:persp3d-origin="0.5 : 0.33333333 : 1" inkscape:vp_x="0 : 0.5 : 1" inkscape:vp_y="0 : 1000 : 0" inkscape:vp_z="1 : 0.5 : 1" sodipodi:type="inkscape:persp3d"/>
    <inkscape:perspective id="perspective3052" inkscape:persp3d-origin="0.5 : 0.33333333 : 1" inkscape:vp_x="0 : 0.5 : 1" inkscape:vp_y="0 : 1000 : 0" inkscape:vp_z="1 : 0.5 : 1" sodipodi:type="inkscape:persp3d"/>
    <inkscape:perspective id="perspective3866" inkscape:persp3d-origin="0.5 : 0.33333333 : 1" inkscape:vp_x="0 : 0.5 : 1" inkscape:vp_y="0 : 1000 : 0" inkscape:vp_z="1 : 0.5 : 1" sodipodi:type="inkscape:persp3d"/>
  </g>
  <sodipodi:namedview id="base" bordercolor="#666666" borderopacity="1.0" inkscape:current-layer="layer1" inkscape:cx="240.32415" inkscape:cy="-37.836532" inkscape:document-units="px" inkscape:pageopacity="0.0" inkscape:pageshadow="2" inkscape:window-height="998" inkscape:window-maximized="1" inkscape:window-width="1680" inkscape:window-x="-8" inkscape:window-y="-8" inkscape:zoom="0.98994949" pagecolor="#ffffff" showgrid="false"/>
  <g id="layer1" inkscape:groupmode="layer" inkscape:label="Layer 1">
    <path id="path2900" d="M57.1,151.8c-7.3-5.7-15.1-11.2-20.4-19-11.2-13.6-19.8-29.4-25.6-46-3.6-10.8-4.8-22.4-9.4-32.7-4.8-7.5.8-15.8,9.1-18.2,3.7-.7,10.1-4.2,2.3-1.7-7,5.1-7.7-4.7-.5-5.3,4.9-.7,6.7-4.7,5-8.3-5.3-3.4,12.7-7.2,3.7-12.3-9.4-10.2,13.2-12.1,7.6-.6-1.3,8.9,15.8-1.6,11.8,8.6,4,4.9,15.1,1.1,14.9,8,5.9.4,7.9,5.4,13.4,5.7,5.7,2.6,16.1,4.6,18.1,11.1-5.7,4.5-18.8-9.3-19.5,3.2,1.7,18.4,1.3,37.3,8,54.9,3.2,10.6,10.9,19,17.9,27.2,6.7,8.1,15.7,13.8,24.9,18.6,8.1,3.8,16.8,6.3,25.6,7.9,3.6-2.7,9.9-12.9,15.4-8.6.3,4.8-11.1,10.1-.5,9.5,6.2-1.9,10.5,4.8,15.6-1.2,4.7,5.6,19.5-3.5,16.1,7.8-4.5,2.9-11.1,1.2-15.6,5.2-7.4-3.7-13.4,3.3-21.6,2.4-9.2,1.6-18.5,2.3-27.8,2.3-15.2-1.2-30.8-1.7-45.3-7-8.2-2.4-16.1-7-23.3-11.7h0ZM70,157.4c8,3.4,15.8,7.1,24.5,8.2,13.9,1.9,28.2,4.9,42.1,2.2-6.3-2.8-12.8,1.1-19.1-2-7.5,1.6-15.6-.4-23.2-1.4-8.7-3.9-18.1-6.5-26.2-11.6-10.2-3.7,5.3,4.8,8,5.5,6.4,3.6-7-1.9-8.9-3.4-5.3-3-6-2.4-.5.7,1.1.6,2.2,1.3,3.3,1.9h0ZM54.8,146.7c7.7,2.9,0-5.4-3.6-4.9-1.6-2.7-6-4.4-2.9-5.9-5.6,1.9-5.9-7.4-8.5-6.1-5.9-1.9-2.3-8.5-9.4-12.6-.6-4.3-7-8-9.1-14.5-.9-3.3-7.2-12.8-3.3-4,3.3,8.5,9.1,15.8,13.9,23.2,3.8,7,8.2,14.2,15,18.6,2.3,2.2,4.5,5.6,7.8,6.3h0ZM32.6,122.3c.3-1.2,1.4,2.5,0,0ZM64.1,150.1c1.7-.8-2.5-1,0,0ZM68.3,151.7c-.4-2.1-1.9,1.2,0,0ZM73.5,153.9c2.5-2.4-3.9-1.5,0,0ZM82.5,158.9c1.5-2.2-4.9-.8,0,0ZM65.2,146.8c3.9-2.5-5,0,0,0ZM69.2,148.8c-.1-1.3-1.4.6,0,0ZM88.8,161.1c3.2,2,18.5,4.4,8.9.8-1.6.3-17.8-4.6-8.9-.8ZM57.6,136.7c-.3-1.3-4.9-1.5,0,0ZM66.8,142.1c2.4-1.7-4.9-1.3,0,0ZM74.5,146.8c3.4-1.3-5.5-1.3,0,0ZM53.9,132.7c3.7,2.8,15,.4,5.7-1.7-4.2-2.3-13.7-3.8-7.3,1.4l1.6.3h0ZM79.7,148.4c1.5-2.6-6.5-1.5,0,0ZM71.8,142.2c9.1,2.6-7.6-5.7-2.2-.9l1.2.5,1,.4h0ZM87.6,151.3c8.6,0-7.8-1.2,0,0h0ZM50.6,127.7c-.3-1.6-2.1.1,0,0ZM102.1,159.4c.2-2.9-2.8,2.2,0,0ZM65.2,136.7c-.5-1.5-2.7,0,0,0ZM51.4,126.7c4.9-.3-6.8-2.2,0,0ZM35,116.1c-.6-2.4-5.4-4.3,0,0ZM78.1,143.4c-.9-1-.4.2,0,0ZM104.9,159.9c0-1.6-1.5.6,0,0ZM75.7,141c.5-2-4.2-.6,0,0ZM55.7,128.3c3.7-.4-5.9-2.5,0,0ZM89.5,149.3c5.7-2.3-5.6-1.1,0,0ZM71.9,137.4c6.6.9-7.8-4.5-1.4-.5l1.4.5h0ZM94.8,151.5c6.2-3.7,4.1,8.6,10.4,1,6.2-4.5-5.4,5.6,2.3.8,5.6-3.7,13.8,1.8,18.9,3.5,3.7-.2,7.3,3.2,11.2,1.2,7.4-2-14.4-2.9-8.7-6.5-6.7,2-11.7-2.3-15-6.6-7.5-1.7-16.3-5.6-20-12.3-1.5-2.5,2.2.4-1.3-3.7-4.5-4-6.8-8.6-9.9-13.6-3.6-1.9-4.1-7.7-4.4-.2,0-4.7-4.4-7.9-5.5-6.6,0-4.5,4.7-2.3,1.4-5.6-.7-4.7-3.1-9.6-3.8-14.9-1.1-2.6-.2-8.1-3.8-2.3-1.3,6.1-.4-7.5,1.6-3,2.7-4.6-1-4.1-1.1-3.4,1.7-3.9,1.1-9.4-.5-7.3.9-4.1,1.5-15.1-1.4-13.2,1.7-4.3,3.3-19.7-4.2-13.8-3.1,0-8.4,1.1-10.9,2.4,7.8,4.3-.8,1.6-4,.9-.4,4-3.6,2.3-7.5,2.3,6.3.8-3.1,6.5-6.7,4.3-4.7,2.2,4.1,7.9,0,9.6.5,2.6-7.2-.9-6.6,5.1-4.6-1.9-.6,7.2,1.7,4.1,7.8,2.1,5.5,6.9,5.7,11.4-1.3,2.7-6.2-6.2-1.1-5.8-4.1-6.6-4.5-2.4-7.9.7-.8.2,8.6,4.4,2.7,6.4,5.2.8,5.3,5.3,6.4,8.2,3.1,3.2,2.5-3.6,6.2.3-2.4-3.5-12.5-9.8-4.3-7.8,0-3.5-1.5-6.3,1-6.2,2.5-4.5-2.6,11,3,5.4,1.5-.7,1.9-4.5,4.7.4,4,4,1.5,6.8-4.2,3.2,1,3.4,7.6,4.7,6.4,10.1,1.3,4.7,3.1,3,4.7,2.7,1.3,4.6,2,1.2,2-1,5.7,1.2,4.4,4.6,6.2,7,4,1.8-5.7-12.1,1.1-4.2,7.2,6.5,2.7,9.2-3.7,8.1,4.1-.3,5.4,5.5,10.5,5.3,4.6,2.2,7.8,10.7-.2,7.1-2.8-2.5-12.6-5.6-4.6-.8,7.4,3.4,13.3,5.5,20.4,9.8,5.1,3.6,7.3,7.8,9.2,8.6-4.3,2-12.9-1.6-6.5-2.8-4-.7-8.5-2.8-4.7,2.2,3.3,2.7,11.5,2.4,13,2.7-1.3,2.8-3.4,3,0,3.2-3.9,2.1,1.2,2.4,1.6,3.6h0ZM86.9,129.1c-2.4-2.5-3-7.1-.4-3.1,1.3.5,4.2,7.5.4,3.1h0ZM112.7,145.5c1.5,0,0,1.1,0,0ZM83.2,123.1c0-3.7.9,2.9,0,0ZM80.6,119.6c-3-5.7,3.7,1.6,0,0ZM49.6,98.2c1.7-.5.9,3,0,0ZM74.3,111.6c1.1-4,1.3,3.4,0,0ZM56.8,99.4c-1.2-2.2,2.6,2.1,0,0ZM71.8,104.2c-2.8-6.3,2-3.4.6,1l-.6-1h0ZM46,87c-1.3-2.1-3.3-8.1-2.7-10,.6,3,6.4,13,2.8,4.1-3.9-7.4,4.7,2.4,5.6,4.3.4,1.8-2.4-.5-.5,3.8-3.5-4.9-2.1,2.7-5.3-2.2ZM38,81.5c.3-4.8,1.8,3.3,0,0ZM41.6,82.7c1.7-3.6,2.9,5.1,0,0ZM32.9,76c-3-3-5.1-5.7.1-1.8,2,0-4.5-6.2.5-2,5.3,1,2.6,8.6-.6,3.8ZM37.5,75.9c1.7-1.7.9,1.7,0,0ZM40.3,76.8c-2.6-4.9,3.2,2.1,0,0ZM34.7,71.5c-8.6-7.7,10.9,4,1.4,1.4l-1.4-1.4s0,0,0,0ZM59.5,85.9c-3.7-2.2-1-15.8.3-6.5,3.6-1.2-.2,4.8,2.5,4.7-.4,3.8-1.6,5.1-2.8,1.8ZM68.6,91.3c.4-4.1.8,2.8,0,0ZM67,89.7c.4-1.7,0,2.1,0,0ZM36.4,69c-5.6-7.7,16.1,7.8,3.6,1.9-1.3-.3-2.9-.5-3.6-1.9ZM54,78.3c-.5-6.5,1.2,1.1,0,0h0ZM67.4,86.9c1-3.7,0,2.4,0,0ZM37.2,66c3.3-.7,13.7,5.8,4.2,1.9-1.1-1.2-3.3-.6-4.2-1.9ZM65.6,80.2c.4-6.6,2-3.9,0,.9v-.9s0,0,0,0h0ZM39.7,63.8c1.3-2-3.6-8.9.7-2.5,1.8,1.5,5.4,2.5,2.3,3.1,4.9,4.3-1.2,1.2-3-.6ZM64.2,78.1c.9-7.5.8,4.4,0,0ZM36.9,56.8c1-.4.5,1.4,0,0ZM43.3,60.6c1.6-3.5,3,3.8,0,0ZM61.3,70.6c0-1.3.3,1.9,0,0ZM60.3,68.3c-2.5-6.2,2.3,3.3,0,0ZM58.7,64.3c-.4-2.6,1.4,3.2,0,0h0ZM61.2,60.2c-1.7-3,2.2-13.3,2.6-6.9-1.8,5-.5,7.8.7,1.1,2.3-5.3-.5,10.4-3.3,5.9,0,0,0,0,0,0ZM63.8,44.9c.7-.9.2,1.1,0,0ZM59.5,129.4c-1-.9.1.6,0,0ZM68.3,133.9c4.9,1.3,4.9-.8.4-1.4-2.4-2.2-9.9-4.6-3.2-.3.4,1.1,1.9,1.1,2.7,1.6h0ZM50.9,122.3c2.7,2,10.2,5.7,3.9.8,2.1-2.5-4.1-3.8-2-5.5-5.3-3.2-4.1-2.9-.5-2.8-6.3-2.8.9-2.6.6-4.1-2.4-.5-12.1-4.3-6.4.3-5.8-2.9-1.4,1.1-3.1.7-5.9-1.6,5.3,4.5-.9,3,3.4,2.7,9.1,6.9,1.4,2.8-1,1.5,5.5,3.7,7.1,4.8h0ZM60.1,127.6c11.2,3.6-5.5-4.4,0,0ZM107.4,156.3c.1-2.2-1.5,1.9,0,0ZM112.3,158.3c2.6-2.5.1,4,4.3-.6,0-3.3-.1-5.3-4.8-1.2-1.3.7-1.9,3.8.5,1.9h0ZM35.1,109.8c-.8-3.1-5.6-3.1,0,0ZM40.3,113.2c-1.9-3.2-6.9-2.9,0,0ZM69.8,131.1c2.9,2.6,13.2,1.9,3.5.3-1.4-2.1-9.2-1.6-3.5-.3ZM110.5,156.1c4.4-3.7-4.3,1.7,0,0ZM119.7,162.5c0-1.2-1.9.5,0,0ZM119.7,160.8c4.9-5.2-4.8.3,0,0h0ZM22.3,99.1c-4.2-6-2.6-8.7-6.6-13.5-.8-3.7-6.9-12.2-3.2-3.2,3.4,5.2,4.4,13.4,9.8,16.8ZM118.2,159.2c9-5.8-3.7-2.5,0,0ZM125.1,161.9c4.5-3.9-2.9-.8,0,0ZM33.6,103.2c1.3-1.9-3.3-.2,0,0ZM123.6,160c4.4-2.8-1-2.4-.8.3l.8-.3h0ZM64.1,122.5c-.2-1.9-2.3.2,0,0ZM67.8,124.6c-1.2-2.4-1.8.4,0,0ZM130.7,161.9c5.6-4.1-3.4-.8-1.2.8l1.2-.8h0ZM128.5,160.9c4.6-3.8-4.8,1.7,0,0ZM139.5,168.2c3.1-2.1-3.7-.7,0,0ZM36.4,101.8c4.1.9,16.5,10.1,9.2.6-3.7-1.1-1.5-10.2-5.3-8.6,2.6,4.3,2.1,6.1-3.3,3.4-6.7-3.3-3.8,1.6-2.5,3-1.8.4,2.4,1.6,1.8,1.6h0ZM17.6,87c.7-3-6.8-16.8-3.6-6.9,1.2,2.1,1,6,3.6,6.9ZM52.1,108.3c-2.1-1.8-.1-.3,0,0ZM57.3,109.5c0-3.2-5.8-1.3,0,0ZM102.6,138c-.9-2.2-3.4,0,0,0h0ZM104.7,139.6c-.3-1.2-1.3.2,0,0ZM122.7,150.9c1.7-1.3-2.2-.2,0,0ZM27,89.4c4.9-1.9-5.3-1.4,0,0ZM98.6,134.5c0-3.2-3.1.8,0,0ZM25,84.9c3.2-1.1-2.9-.7,0,0ZM34.2,89.3c0-1.1-1,.4,0,0ZM146.5,158.1c4.1-.8,13.4,2.1,14.9-1.1-5-.1-17.1-3.5-17.7.8l1.1.2h1.8q0,.1,0,.1ZM37.2,90.1c0-3.2-2.5-.1,0,0ZM13,73.3c-1.1-6.2-4.2-.9,0,0ZM18.8,74.7c0-2-5.3-1.8,0,0ZM22,76.4c-1-.8-.7,1,0,0ZM42.8,89.7c1-.9-2.3-.7,0,0ZM19.9,72.7c-.6-4.7-6.7-.7,0,0ZM8,65c-.2-2.2-1.2.8,0,0ZM9.8,63.7c-.3-2.5-1.5.3,0,0ZM19.5,69.5c4.1-1.6-7.5-3.3-.8-.3l.8.3ZM149.6,149.9c2.6-2.4-3.3-.7,0,0ZM165.3,158c1.1-3.1-2.7.4,0,0ZM20.5,64.4c.4-3-3.3.6,0,0ZM6.7,55.1c-.7-4.3-.6-11.7,6.5-9.2-9.5,1.9,6.6,11.8,4.5,4,4,.2,7.8-2.4,5.7,1.5,7.9-.9,13.3-7.7,20.9-6.7,5.9-.8,12.4-1.4,18.8-3.8,5.2-.4,10.3-6,7.4-9.4-7.1-.6-14.6.3-22.5,1.9-8.8,1.8-16.7,5.3-25.5,6.8-8.6,1.2,1.7,3.2-.7,3.6-4.5,1.6,5.4,2.6-.6,4.3-3.7-.7-7.5-2-5.9-5.8-8.2,1.1-15.5,4.5-9,12.9h.5s0,0,0,0h0ZM26.5,45c1.9-7.1,10.4,5.9,3.2.9-.9-.6-2.3-1.2-3.2-.9ZM26.9,41.6c2.8-2.1,1.5,1.2,0,0ZM30.4,41.6c.3-3.3,8.1,1.7,1.3,1.2l-1.3-1.2h0ZM35.3,39.7c1.8-2.1.5,1.8,0,0ZM36.5,38.8c2.9-3.5,16.7-2.3,6.6-.3-2.7-2-4.8,1.2-6.6.3ZM54.5,36.1c-.4-9.7,8.9,3.4,0,0ZM59.6,36.1c1.9-4.9,7.2-2,.9-1,.1.5-.2,2.5-.9,1ZM18.5,61.9c5.6-3.4-5.9-3,0,0h0ZM22.6,63c1.9-2.1-4.2-.8,0,0ZM10.5,54.5c3.2-2.4-3.8-.9,0,0ZM174.6,157.1c0-2.8-2.4,1.3,0,0ZM157.9,145.7c.5-3.3-2.1.3,0,0ZM179.2,158.2c4.4,0,13.5-1.4,3.8-1.4-1.5.2-8.8.2-3.8,1.4h0ZM26.2,61c3.6-.2,5.6-4-.7-3.7-9.8-1,8.6,3.4-1.3,2.1-1.3.9,1.9,1.9,2,1.6ZM29.4,62.6c-.4-2.3-1.1,1.2,0,0ZM33.1,52.6c1.6-1.9-2.2-.5,0,0ZM21.2,32.7c6.4-2.2,15.2-4.6,18.2,1.1-3.1-3.7-1.2-7.4,1.7-1.9,4.1,5.5,6.2-2.5,3.5-4.3,3.1,3.8,6.5,5.6,2,.2,4.9-5.9-9.7.8-13.1.7-1.6.7-16.5,3.8-12.4,4.3ZM24.9,25.5c3.7-2.8,12.6,1.6,6.9-2.7-.6-.5-12.6,3.3-6.9,2.7ZM38.3,26c4.3.1-1.8-5.8,3.3-3.1-.8-2.7-5.9-3.2-8.4-4.3-1.4,2.5,2.9,7.5,5.2,7.4ZM27.3,13.9c1.5-2-2.6,1,0,0ZM32.7,15.2c6.9-.9-1.8-3-1.4,0h1.4ZM22.6,7.3c-4.9-6.3,9.1,1.1,4.2-5.6-4.2-3.3-8.1,3.7-4.2,5.6ZM84.9,40.8c2.2-3.9-9.2-5.3-1.5-1.4.7.2.5,1.7,1.5,1.4Z"/>
  </g>
</svg>