<?xml version="1.0" encoding="UTF-8"?>
<svg xmlns="http://www.w3.org/2000/svg" version="1.1" viewBox="0 0 120 257">
  <defs>
    <style>
      .st0 {
        fill: rgb(0, 104, 74);
      }
    </style>
  </defs>
  <path class="st0" d="M82.3,28.6C71.5,15.8,62.2,2.8,60.4.1c-.2-.2-.5-.2-.7,0-1.9,2.7-11.2,15.7-22,28.5-92.6,118.1,14.6,197.8,14.6,197.8l.9.6c.8,12.3,2.8,30,2.8,30h8s2-17.6,2.8-30l.9-.7c0,.1,107.3-79.6,14.7-197.7ZM60,224.6s-4.8-4.1-6.1-6.2v-.2l5.8-128.6c0-.4.6-.4.6,0l5.8,128.6v.2c-1.3,2.1-6.1,6.2-6.1,6.2Z"/>
</svg>