<?xml version="1.0" encoding="UTF-8"?>
<svg xmlns="http://www.w3.org/2000/svg" viewBox="0 0 798.24 261.4" fill="#d7d7d7"> 
    <path d="M730.03,193.9c7.82-17.27,11.73-37.77,11.73-61.5,0-40.25-11.3-71.27-33.9-93.04-22.6-21.77-54.97-32.66-97.1-32.66h-92.16s-.59,0-.59,0v141.24L434.32,6.7h-69.91v195.03l-86.22-.81,2.88-194.22h-69.21v154.38c-1.45-4.63-3.39-9.01-5.83-13.13-6-10.12-16.19-18.83-30.54-26.13-14.36-7.29-33.9-13.06-58.62-17.3-10.83-1.88-19.37-4-25.6-6.35-6.24-2.35-10.71-5.3-13.42-8.83-2.71-3.53-4.06-7.89-4.06-13.07,0-6.59,2.7-11.88,8.12-15.89,5.41-4,13.06-6,22.95-6,7.77,0,14.42,1.47,19.95,4.41,5.53,2.95,9.94,7.12,13.24,12.54,3.29,5.42,5.18,12.01,5.65,19.77l68.15-2.82c-1.65-17.42-6.65-32.72-15.01-45.9-8.36-13.18-20.07-23.54-35.13-31.07C146.65,3.77,127.94,0,105.58,0c-21.19,0-39.32,3.3-54.38,9.89-15.07,6.59-26.6,15.77-34.6,27.54-8.01,11.77-12.01,25.42-12.01,40.96s3.23,27.9,9.71,37.78c6.47,9.89,16.77,17.95,30.9,24.19,14.13,6.24,32.6,11.71,55.44,16.42,12.71,2.59,22.3,5.24,28.78,7.94,6.47,2.71,10.82,5.77,13.06,9.18,2.23,3.42,3.35,7.36,3.35,11.83,0,4.95-1.3,9.07-3.88,12.36-2.59,3.3-6.36,5.71-11.3,7.24-4.94,1.53-10.95,2.3-18.01,2.3-8.95,0-16.42-1.47-22.42-4.41-6-2.94-10.77-7.29-14.3-13.07-3.53-5.76-5.89-12.77-7.06-21.01L0,172.32c1.18,18.36,6.23,34.25,15.18,47.67,8.94,13.42,21.54,23.78,37.78,31.07,16.24,7.29,35.81,10.34,58.88,10.34,21.66,0,40.28-2.57,55.7-8.93,15.42-6.36,27.19-15.48,35.31-27.37,3.98-5.82,6.98-12.17,9.01-19.05v51.34h221.75V123.22l83.69,134.18h95.57c41.43,0,73.27-10.82,95.51-32.49,8.51-8.28,15.39-17.92,20.64-28.89v61.43h69.21v-63.56h-68.21ZM656.49,185.07c-9.53,11.3-24.78,16.95-45.73,16.95h-22.95V62.19h22.95c20.95,0,36.19,5.65,45.73,16.95,9.53,11.3,14.3,28.96,14.3,52.97s-4.77,41.67-14.3,52.97Z" />
</svg>