<?xml version="1.0" encoding="UTF-8"?>
<svg id="trapper" xmlns="http://www.w3.org/2000/svg" viewBox="0 0 321.76 124.36">
  <defs>
    <style>
      .cls-1 {
        fill: #b89941;
      }
    </style>
  </defs>
  <g>
    <path class="cls-1" d="M244.88,16.23c-18.27,0-33.12,18.5-33.12,41.25v41.25h66.25v-41.25c0-22.75-14.86-41.25-33.12-41.25ZM259.94,66.23h-30.11v-19.49c0-9.26,6.74-16.76,15.06-16.76s15.06,7.5,15.06,16.76v19.49Z"/>
    <path class="cls-1" d="M251.19,104.98l-24.97,7.81c-1.4.55-2.77-.87-2.14-2.22l2.45-5.59h-9.5l-4.92,13.23c-.51,1.29-.49,2.78.22,3.97.83,1.4,2.31,2.17,3.83,2.17.45,0,.89-.07,1.33-.2l51.71-19.17h-18.01Z"/>
    <path class="cls-1" d="M321.76,81.41v-43.92c0-22.75-13.83-37.48-34.16-37.48l-40.84,9.98c26.25,0,40,23.75,40,47.5l-.02,41.22,35.02-17.29Z"/>
    <path class="cls-1" d="M315.51,91.05c0,6.63-1.32,13.59-7,17-5,3-13,2-13-7l20-10Z"/>
  </g>
  <g>
    <g>
      <path d="M6.06,63.13h-1.35c0-3.25.92-9.2,2.76-17.82,1.84-8.63,2.87-13.79,3.09-15.5.21-1.71.34-2.99.38-3.85-3.69.08-6.63.65-8.82,1.71-1.14-1.29-1.84-3.2-2.12-5.71,1.92-.67,5.22-1,9.88-1l18.53.59c.9,0,2.33-.04,4.29-.12.16,1.26.24,2.31.24,3.18,0,1.84-1.16,2.76-3.47,2.76-.71,0-1.81-.12-3.32-.35-1.51-.24-2.83-.37-3.97-.41-.12,1.26-1.13,6.35-3.03,15.29-1.9,8.94-2.85,15.51-2.85,19.71-1.73,1.02-5.14,1.53-10.24,1.53Z"/>
      <path d="M27.41,63.07h-.47c-.12-.55-.18-1.4-.18-2.56s.48-4.16,1.44-9c.96-4.84,1.44-7.59,1.44-8.24s-.18-1.31-.53-2c-.35-.69-.71-1.21-1.06-1.56l-.53-.53.12-.88c2.35-.74,6.25-1.12,11.71-1.12.51.98.82,2.14.94,3.47,2.39-2.67,4.51-4,6.35-4,2.39,0,3.71,2.02,3.94,6.06-.08.08-.18.21-.29.38-.12.18-.39.48-.82.91s-.88.82-1.35,1.18c-1.33.9-2.75,1.43-4.24,1.59-.04,0-.3-.43-.79-1.29-.49-.86-.9-1.29-1.24-1.29s-.95.35-1.85,1.06c-.12.71-.34,1.9-.68,3.59-.33,1.69-.6,3.08-.79,4.18-.59,2.9-.88,5.33-.88,7.29l.06,1.76c-1.73.67-5.16,1-10.29,1Z"/>
      <path d="M75.94,47.98c-.59,3.51-.88,5.96-.88,7.35s.22,2.09.65,2.09l2.94-.82,1.06,2.94c-1.26.98-2.85,1.87-4.79,2.68-1.94.8-3.66,1.21-5.15,1.21-2.55,0-4.16-1.1-4.82-3.29-3.1,2.2-5.83,3.29-8.21,3.29s-4.21-.86-5.5-2.59c-1.29-1.72-1.94-4.2-1.94-7.41,0-4.43,1.14-8.33,3.41-11.71,2.27-3.37,5.27-5.06,9-5.06,2.04,0,4.12.57,6.24,1.71.31-.71.57-1.22.76-1.53,2.82,0,5.94.69,9.35,2.06-.82,2.55-1.53,5.58-2.12,9.09ZM60.35,52.69c0,1.98.14,3.23.41,3.74.27.51.78.76,1.53.76s1.47-.29,2.18-.88c.16-4.55.9-9.31,2.24-14.29-.59-.35-1.26-.53-2.03-.53s-1.45.43-2.06,1.29c-.61.86-1.07,1.94-1.38,3.24-.59,2.47-.88,4.7-.88,6.68Z"/>
      <path d="M78.71,75.89c-.31-.51-.47-1.59-.47-3.24s.75-6.12,2.26-13.41c1.51-7.29,2.27-11.86,2.27-13.71s-.18-3.24-.53-4.21c-.35-.96-.71-1.58-1.06-1.85l-.53-.41.12-.88c2.35-.74,6.33-1.12,11.94-1.12.31.59.57,1.35.76,2.29,2.51-1.8,4.88-2.71,7.12-2.71s4.07.85,5.5,2.56c1.43,1.71,2.15,4.6,2.15,8.68s-1.07,7.69-3.21,10.82c-2.14,3.14-5.26,4.71-9.38,4.71-1.8,0-3.57-.35-5.29-1.06-.9,4.43-1.35,8.33-1.35,11.71-2.82,1.02-6.26,1.63-10.29,1.82ZM92.94,58.48c1.06,0,1.96-.78,2.71-2.35,1.33-2.74,2-6.08,2-10,0-2.31-.57-3.47-1.71-3.47-.59,0-1.37.22-2.35.65-.24,3.29-1.02,8.26-2.35,14.88.67.2,1.24.29,1.71.29Z"/>
      <path d="M108.82,75.89c-.31-.51-.47-1.59-.47-3.24s.75-6.12,2.26-13.41c1.51-7.29,2.27-11.86,2.27-13.71s-.18-3.24-.53-4.21c-.35-.96-.71-1.58-1.06-1.85l-.53-.41.12-.88c2.35-.74,6.33-1.12,11.94-1.12.31.59.57,1.35.76,2.29,2.51-1.8,4.88-2.71,7.12-2.71s4.07.85,5.5,2.56c1.43,1.71,2.15,4.6,2.15,8.68s-1.07,7.69-3.21,10.82c-2.14,3.14-5.26,4.71-9.38,4.71-1.8,0-3.57-.35-5.29-1.06-.9,4.43-1.35,8.33-1.35,11.71-2.82,1.02-6.26,1.63-10.29,1.82ZM123.06,58.48c1.06,0,1.96-.78,2.71-2.35,1.33-2.74,2-6.08,2-10,0-2.31-.57-3.47-1.71-3.47-.59,0-1.37.22-2.35.65-.24,3.29-1.02,8.26-2.35,14.88.67.2,1.24.29,1.71.29Z"/>
      <path d="M140.23,52.07c0-4.86,1.48-8.65,4.44-11.35,2.96-2.71,6.62-4.06,10.97-4.06,3.02,0,5.44.66,7.26,1.97,1.82,1.31,2.74,3.07,2.74,5.26,0,1.61-.49,3.04-1.47,4.29-.98,1.25-2.18,2.22-3.59,2.88-2.98,1.33-5.57,2.14-7.76,2.41l-1.47.18c.43,2.59,1.73,3.88,3.88,3.88.94,0,1.98-.21,3.12-.62,1.14-.41,2.04-.83,2.71-1.27l1-.59,1.88,2.53-.65.65c-.24.24-.79.7-1.68,1.38-.88.69-1.8,1.29-2.76,1.79-.96.51-2.19.97-3.68,1.38-1.49.41-2.98.62-4.47.62-3.33,0-5.91-.97-7.74-2.91-1.82-1.94-2.74-4.75-2.74-8.44ZM154.53,46.98c1.14-1.71,1.71-3.14,1.71-4.29s-.33-1.74-1-1.74c-.98,0-1.88.76-2.71,2.29-.82,1.53-1.29,3.71-1.41,6.53,1.14-.16,2.27-1.09,3.41-2.79Z"/>
      <path d="M167.59,63.07h-.47c-.12-.55-.18-1.4-.18-2.56s.48-4.16,1.44-9c.96-4.84,1.44-7.59,1.44-8.24s-.18-1.31-.53-2c-.35-.69-.71-1.21-1.06-1.56l-.53-.53.12-.88c2.35-.74,6.25-1.12,11.71-1.12.51.98.82,2.14.94,3.47,2.39-2.67,4.51-4,6.35-4,2.39,0,3.71,2.02,3.94,6.06-.08.08-.18.21-.29.38-.12.18-.39.48-.82.91-.43.43-.88.82-1.35,1.18-1.33.9-2.75,1.43-4.23,1.59-.04,0-.3-.43-.79-1.29-.49-.86-.9-1.29-1.24-1.29s-.95.35-1.85,1.06c-.12.71-.34,1.9-.68,3.59-.33,1.69-.6,3.08-.79,4.18-.59,2.9-.88,5.33-.88,7.29l.06,1.76c-1.73.67-5.16,1-10.29,1Z"/>
    </g>
    <g>
      <path d="M11.44,95.66c-1.24,1.07-2.33,1.6-3.27,1.6s-1.49-.47-1.63-1.4c-.44.44-.93.78-1.47,1.03-.54.25-1.02.37-1.42.37-.7,0-1.3-.31-1.8-.92s-.74-1.56-.74-2.85c0-1.93.41-3.44,1.23-4.55s1.74-1.65,2.77-1.65,1.9.23,2.6.7c.45-2.37.68-4.23.68-5.59l-.11-.92c1.1-.38,2.17-.57,3.22-.57.12.25.18.53.18.85,0,1.07-.32,3.23-.96,6.5-.64,3.26-.96,5.48-.96,6.65,0,.35.08.53.24.53.09,0,.36-.14.83-.42l.22-.13.42.77ZM6.16,88.58c-.51,0-.95.5-1.33,1.51-.37,1.01-.56,2-.56,2.99s.07,1.62.21,1.89c.14.28.35.42.62.42.48,0,.96-.2,1.42-.59.04-.58.37-2.53.99-5.83-.5-.26-.95-.39-1.36-.39Z"/>
      <path d="M11.97,93.2c0-1.83.55-3.27,1.65-4.33,1.1-1.06,2.35-1.59,3.76-1.59.86,0,1.57.21,2.12.63.55.42.83.99.83,1.7s-.18,1.3-.54,1.79c-.36.48-.79.85-1.3,1.12-1.04.51-1.99.83-2.85.96l-.53.07c.1,1.37.66,2.06,1.69,2.06.35,0,.72-.09,1.12-.26.39-.17.7-.35.92-.53l.33-.26.53.7c-.12.16-.35.37-.7.63-.35.26-.68.48-.99.66-.85.47-1.77.7-2.78.7s-1.8-.36-2.39-1.07-.88-1.71-.88-2.98ZM16.88,91.54c.44-.5.66-1.14.66-1.93s-.23-1.18-.7-1.18c-.56,0-.98.47-1.28,1.41-.3.94-.45,1.82-.45,2.64.74-.13,1.34-.45,1.77-.94Z"/>
      <path d="M21.24,97.06h-.15c-.03-.12-.04-.38-.04-.8s.2-1.54.59-3.36c.39-1.83.59-2.87.59-3.13,0-.45-.2-.95-.61-1.49l-.2-.26.02-.28c.79-.22,2.05-.33,3.79-.33.18.38.26.91.26,1.6.16-.26.5-.61,1.01-1.05.51-.44,1.04-.66,1.58-.66.79,0,1.18.69,1.18,2.06-.07.09-.17.2-.3.34-.12.14-.37.33-.74.58-.37.25-.73.4-1.08.46-.01,0-.14-.2-.37-.59-.23-.39-.41-.59-.53-.59-.37.13-.69.35-.96.66-.67,3.02-1.01,4.98-1.01,5.87,0,.32,0,.55.02.68-.51.21-1.53.31-3.05.31Z"/>
      <path d="M35.42,96.43c-.45-.55-.67-1.22-.67-2.03s.1-2.22.31-4.25c.2-2.03.31-3.48.31-4.34s-.1-1.53-.29-2.02l-.9-1.67.09-.33c1.18-.25,2.65-.37,4.4-.37.15.56.22,1.41.22,2.56s-.14,2.83-.43,5.03c-.28,2.2-.43,3.66-.43,4.38s.23,1.08.68,1.08,1.03-.39,1.74-1.16c.71-.77,1.38-1.79,2.03-3.06.64-1.26,1.04-2.48,1.18-3.65l-2.32-1.36c.12-1.11.39-1.99.81-2.65.38-.58.69-.96.94-1.12l.15-.11c.89,0,1.57.23,2.03.7.46.47.69,1.02.69,1.67,0,1.59-.48,3.45-1.42,5.59-.95,2.13-2.13,3.98-3.55,5.55-1.42,1.57-2.72,2.35-3.92,2.35-.66,0-1.21-.27-1.65-.82Z"/>
      <path d="M45.68,93.2c0-1.83.55-3.27,1.65-4.33,1.1-1.06,2.35-1.59,3.76-1.59.86,0,1.57.21,2.12.63.55.42.83.99.83,1.7s-.18,1.3-.54,1.79c-.36.48-.79.85-1.3,1.12-1.04.51-1.99.83-2.85.96l-.53.07c.1,1.37.66,2.06,1.69,2.06.35,0,.72-.09,1.12-.26.39-.17.7-.35.92-.53l.33-.26.53.7c-.12.16-.35.37-.7.63-.35.26-.68.48-.99.66-.85.47-1.77.7-2.78.7s-1.8-.36-2.39-1.07-.88-1.71-.88-2.98ZM50.59,91.54c.44-.5.66-1.14.66-1.93s-.23-1.18-.7-1.18c-.56,0-.98.47-1.28,1.41-.3.94-.45,1.82-.45,2.64.74-.13,1.34-.45,1.77-.94Z"/>
      <path d="M54.95,97.06h-.15c-.03-.12-.04-.38-.04-.8s.2-1.54.59-3.36c.39-1.83.59-2.87.59-3.13,0-.45-.2-.95-.61-1.49l-.2-.26.02-.28c.79-.22,2.05-.33,3.79-.33.18.38.26.91.26,1.6.16-.26.5-.61,1.01-1.05.51-.44,1.04-.66,1.58-.66.79,0,1.18.69,1.18,2.06-.07.09-.17.2-.3.34-.12.14-.37.33-.74.58-.37.25-.73.4-1.08.46-.01,0-.14-.2-.37-.59-.23-.39-.41-.59-.53-.59-.37.13-.69.35-.96.66-.67,3.02-1.01,4.98-1.01,5.87,0,.32,0,.55.02.68-.51.21-1.53.31-3.05.31Z"/>
      <path d="M64.96,82.53c0-.48-.04-.83-.13-1.03,1.14-.39,2.21-.59,3.22-.59.13.13.2.47.2,1.01,0,1.21-.4,3.53-1.21,6.97,1.3-1.07,2.59-1.6,3.86-1.6.57,0,1.05.17,1.45.53.39.35.59.86.59,1.53,0,1.26-1.03,2.17-3.09,2.74.48,1.52.91,2.55,1.27,3.09.16.23.28.35.35.35.16,0,.5-.12,1.01-.37l.24-.11.35.75c-.35.32-.84.65-1.46.97-.62.33-1.19.49-1.7.49-1.14,0-1.94-1.04-2.39-3.11-.21-.89-.33-1.72-.37-2.5.93-.22,1.63-.49,2.09-.8.46-.31.69-.71.69-1.21s-.25-.73-.74-.73-1.33.5-2.5,1.49c-.73,3.08-1.1,5.19-1.1,6.33-.8.23-1.85.35-3.13.35-.01-.25-.02-.47-.02-.66,0-.63.42-2.78,1.26-6.44s1.26-6.15,1.26-7.45Z"/>
      <path d="M80.15,87.92s.11-.22.24-.57c.69,0,1.61.21,2.76.61-.37,1.21-.66,2.48-.88,3.8-.22,1.32-.33,2.26-.33,2.83s.06.84.18.84c.09,0,.41-.14.96-.42l.26-.13.39.77c-.13.12-.3.26-.52.44-.21.18-.61.41-1.19.71-.58.3-1.11.45-1.58.45-.91,0-1.43-.41-1.58-1.23-.93.82-1.78,1.23-2.53,1.23s-1.39-.29-1.91-.88c-.52-.58-.78-1.5-.78-2.76,0-1.96.4-3.5,1.2-4.63.8-1.13,1.77-1.7,2.91-1.7.82,0,1.61.21,2.37.63ZM77.65,95.39c.35,0,.74-.14,1.18-.42.1-2.06.45-4.1,1.03-6.11-.44-.19-.81-.29-1.12-.29-.53,0-.98.52-1.35,1.54-.37,1.03-.56,2.17-.56,3.41s.27,1.86.81,1.86Z"/>
      <path d="M84.31,95.34c0-.62.19-1.69.57-3.2.38-1.51.57-2.44.57-2.78s-.26-.8-.79-1.37l.02-.29c.99-.2,2.3-.31,3.92-.31.07.19.11.53.11,1.03s-.2,1.56-.61,3.18c-.41,1.62-.61,2.63-.61,3.02s.15.59.44.59c.42,0,.91-.15,1.47-.46.06-.35.2-1.02.44-2.02.53-2.34.79-4.01.79-5.02.51-.21,1.43-.31,2.76-.31h.42c0,.69-.21,2.03-.61,4.02-.41,1.99-.61,3.16-.61,3.5s.07.52.22.52c.09,0,.5-.18,1.25-.53l.42.7c-1.3,1.08-2.44,1.62-3.42,1.62-.47,0-.87-.13-1.19-.39-.33-.26-.51-.61-.56-1.03-1.18.96-2.26,1.45-3.22,1.45-.51,0-.93-.17-1.26-.5-.33-.34-.49-.81-.49-1.44Z"/>
      <path d="M101.46,87.55c-.03.32-.16.75-.39,1.27-.56-.06-1.1-.09-1.64-.09h-.09c-.31,3.61-.59,6.27-.85,8-.26,1.72-.61,2.93-1.03,3.61-.53-.01-1.07-.08-1.63-.21-.56-.12-.95-.25-1.15-.38.35-1.08.7-2.71,1.06-4.89s.59-4.18.69-6.02c-.41.03-.86.08-1.36.15-.04-.19-.07-.38-.07-.58s.03-.49.09-.87h1.4c.03-1.27.1-2.23.2-2.89.18-1.17.58-2.08,1.22-2.75.64-.66,1.46-1,2.46-1,.64,0,1.15.14,1.52.43.37.29.56.73.56,1.35s-.28,1.41-.83,2.38-1.29,1.8-2.19,2.49h2.04ZM100.8,84.57c.32-.58.48-1.11.48-1.59s-.15-.71-.46-.71c-.64,0-1.05.74-1.23,2.21-.06.5-.1,1.06-.13,1.69.57-.48,1.02-1.02,1.34-1.6Z"/>
      <path d="M108.25,94.12c0,.92-.41,1.67-1.22,2.26s-1.73.88-2.77.88-1.86-.22-2.46-.66c-.61-.44-.91-.83-.91-1.16,0-.2.26-.54.77-1,.51-.46.94-.74,1.29-.84.73.54,1.33,1.39,1.8,2.56.54-.04.81-.3.81-.77,0-.67-.59-1.62-1.77-2.86s-1.77-2.22-1.77-2.95.33-1.3.99-1.7,1.45-.6,2.38-.6,1.62.16,2.09.49c.47.33.7.77.7,1.34s-.45,1.34-1.34,2.33c.1.1.23.24.39.41.16.17.37.49.64.95.26.47.39.91.39,1.31ZM107.07,89.13c0-.51-.35-.77-1.05-.77-.34,0-.61.07-.83.21-.22.14-.33.3-.33.47,0,.32.32.77.96,1.36l.33.29c.61-.53.92-1.04.92-1.56Z"/>
      <path d="M115.79,87.92s.11-.22.24-.57c.69,0,1.61.21,2.76.61-.37,1.21-.66,2.48-.88,3.8-.22,1.32-.33,2.26-.33,2.83s.06.84.18.84c.09,0,.41-.14.96-.42l.26-.13.39.77c-.13.12-.3.26-.52.44-.21.18-.61.41-1.19.71-.58.3-1.11.45-1.58.45-.91,0-1.43-.41-1.58-1.23-.93.82-1.78,1.23-2.53,1.23s-1.39-.29-1.91-.88c-.52-.58-.78-1.5-.78-2.76,0-1.96.4-3.5,1.2-4.63.8-1.13,1.77-1.7,2.91-1.7.82,0,1.61.21,2.37.63ZM113.29,95.39c.35,0,.74-.14,1.18-.42.1-2.06.45-4.1,1.03-6.11-.44-.19-.81-.29-1.12-.29-.53,0-.98.52-1.35,1.54-.37,1.03-.56,2.17-.56,3.41s.27,1.86.81,1.86Z"/>
      <path d="M120.37,97.06h-.42c0-.69.21-2,.62-3.94.42-1.94.62-3.04.62-3.31,0-.48-.2-.99-.61-1.53l-.2-.26.02-.28c.79-.22,2.05-.33,3.79-.33.19.25.29.7.31,1.36,1.27-.98,2.34-1.47,3.22-1.47.53,0,.95.18,1.26.55.31.37.47.82.47,1.37s-.17,1.49-.5,2.84c-.34,1.34-.5,2.25-.5,2.71s.06.69.18.69c.09,0,.39-.14.92-.42l.26-.13.39.77c-.13.12-.31.26-.53.44-.22.18-.62.41-1.22.71-.59.3-1.12.45-1.59.45-1.07,0-1.6-.61-1.6-1.82,0-.51.16-1.45.49-2.83.33-1.37.49-2.26.49-2.65s-.12-.59-.37-.59c-.42,0-.94.18-1.56.55-.04.25-.19.91-.44,1.97-.51,2.29-.77,3.91-.77,4.86-.51.21-1.43.31-2.76.31Z"/>
      <path d="M133.47,82.53c0-.48-.04-.83-.13-1.03,1.14-.39,2.21-.59,3.22-.59.13.13.2.47.2,1.01,0,.96-.41,3.18-1.23,6.66,1.18-.86,2.22-1.29,3.11-1.29.56,0,.98.17,1.26.53s.43.81.43,1.39-.17,1.52-.5,2.83c-.34,1.31-.5,2.2-.5,2.68s.06.72.18.72.42-.13.92-.39l.26-.13.39.77c-.13.12-.31.26-.53.44-.22.17-.62.41-1.21.7-.58.29-1.12.44-1.61.44s-.88-.16-1.17-.47c-.29-.31-.44-.74-.44-1.27s.16-1.5.49-2.91.49-2.3.49-2.67-.15-.56-.46-.56c-.38,0-.85.16-1.42.48-.8,3.53-1.21,5.83-1.21,6.88-.61.23-1.66.35-3.13.35-.01-.25-.02-.47-.02-.66,0-.63.43-2.78,1.3-6.44.87-3.67,1.3-6.15,1.3-7.45Z"/>
      <path d="M148.3,87.92s.11-.22.24-.57c.69,0,1.61.21,2.76.61-.37,1.21-.66,2.48-.88,3.8-.22,1.32-.33,2.26-.33,2.83s.06.84.18.84c.09,0,.41-.14.96-.42l.26-.13.39.77c-.13.12-.3.26-.52.44-.21.18-.61.41-1.19.71-.58.3-1.11.45-1.58.45-.91,0-1.43-.41-1.58-1.23-.93.82-1.78,1.23-2.53,1.23s-1.39-.29-1.91-.88c-.52-.58-.78-1.5-.78-2.76,0-1.96.4-3.5,1.2-4.63.8-1.13,1.77-1.7,2.91-1.7.82,0,1.61.21,2.37.63ZM145.64,85.18c-.43,0-.76-.13-1-.39-.23-.26-.35-.61-.35-1.05s.16-.81.49-1.13c.33-.31.7-.47,1.13-.47.92,0,1.38.47,1.38,1.42,0,.42-.17.8-.5,1.13-.34.33-.72.49-1.15.49ZM145.8,95.39c.35,0,.74-.14,1.18-.42.1-2.06.45-4.1,1.03-6.11-.44-.19-.81-.29-1.12-.29-.53,0-.98.52-1.35,1.54-.37,1.03-.56,2.17-.56,3.41s.27,1.86.81,1.86ZM149.92,85.18c-.44,0-.77-.13-1-.38-.23-.26-.34-.61-.34-1.05s.16-.83.49-1.14c.33-.31.71-.47,1.15-.47s.77.13,1.01.38c.23.26.35.6.35,1.03s-.17.81-.5,1.14c-.34.33-.72.49-1.16.49Z"/>
      <path d="M152.88,97.06h-.42c0-.69.21-2,.62-3.94.42-1.94.62-3.04.62-3.31,0-.48-.2-.99-.61-1.53l-.2-.26.02-.28c.79-.22,2.05-.33,3.79-.33.19.25.29.7.31,1.36,1.27-.98,2.34-1.47,3.22-1.47.53,0,.95.18,1.26.55.31.37.47.82.47,1.37s-.17,1.49-.5,2.84c-.34,1.34-.5,2.25-.5,2.71s.06.69.18.69c.09,0,.39-.14.92-.42l.26-.13.39.77c-.13.12-.31.26-.53.44-.22.18-.62.41-1.22.71-.59.3-1.12.45-1.59.45-1.07,0-1.6-.61-1.6-1.82,0-.51.16-1.45.49-2.83.33-1.37.49-2.26.49-2.65s-.12-.59-.37-.59c-.42,0-.94.18-1.56.55-.04.25-.19.91-.44,1.97-.51,2.29-.77,3.91-.77,4.86-.51.21-1.43.31-2.76.31Z"/>
      <path d="M172.68,87.44c.06.06.09.19.09.38s-.01.41-.04.64c-.03.23-.08.73-.15,1.52-.07.79-.15,1.48-.22,2.06-.74,6.57-2.75,9.86-6,9.86-.53,0-1-.14-1.44-.42s-.65-.64-.65-1.07c0-.58.36-1.12,1.07-1.6s1.68-.85,2.89-1.12c0-.01.04-.22.13-.61.09-.39.15-.72.18-.96-.88.64-1.7.96-2.46.96s-1.39-.3-1.88-.9c-.49-.6-.73-1.56-.73-2.87,0-1.72.39-3.16,1.16-4.3.77-1.15,1.8-1.72,3.07-1.72.72,0,1.42.17,2.12.53.75-.26,1.55-.39,2.41-.39l.46.02ZM166.19,99.36c-.49.29-.73.58-.73.85s.16.42.47.42.67-.15,1.06-.45c.39-.3.72-.79.99-1.46-.7.13-1.3.34-1.79.64ZM168.67,88.58c-.63,0-1.12.51-1.49,1.52-.37,1.01-.55,2.14-.55,3.37s.28,1.85.83,1.85c.36,0,.8-.14,1.29-.42.41-2.45.7-4.48.88-6.07-.41-.18-.73-.26-.96-.26Z"/>
      <path d="M173.47,93.2c0-1.83.55-3.27,1.65-4.33,1.1-1.06,2.35-1.59,3.76-1.59.86,0,1.57.21,2.12.63.55.42.83.99.83,1.7s-.18,1.3-.54,1.79c-.36.48-.79.85-1.3,1.12-1.04.51-1.99.83-2.85.96l-.53.07c.1,1.37.66,2.06,1.69,2.06.35,0,.72-.09,1.12-.26.39-.17.7-.35.92-.53l.33-.26.53.7c-.12.16-.35.37-.7.63-.35.26-.68.48-.99.66-.85.47-1.77.7-2.78.7s-1.8-.36-2.39-1.07-.88-1.71-.88-2.98ZM178.38,91.54c.44-.5.66-1.14.66-1.93s-.23-1.18-.7-1.18c-.56,0-.98.47-1.28,1.41-.3.94-.45,1.82-.45,2.64.74-.13,1.34-.45,1.77-.94Z"/>
      <path d="M182.74,97.06h-.15c-.03-.12-.04-.38-.04-.8s.2-1.54.59-3.36c.39-1.83.59-2.87.59-3.13,0-.45-.2-.95-.61-1.49l-.2-.26.02-.28c.79-.22,2.05-.33,3.79-.33.18.38.26.91.26,1.6.16-.26.5-.61,1.01-1.05.51-.44,1.04-.66,1.58-.66.79,0,1.18.69,1.18,2.06-.07.09-.17.2-.3.34-.12.14-.37.33-.74.58-.37.25-.73.4-1.08.46-.01,0-.14-.2-.37-.59-.23-.39-.41-.59-.53-.59-.37.13-.69.35-.96.66-.67,3.02-1.01,4.98-1.01,5.87,0,.32,0,.55.02.68-.51.21-1.53.31-3.05.31Z"/>
    </g>
  </g>
</svg>