<?xml version="1.0" encoding="UTF-8"?>
<svg id="Ebene_1" xmlns="http://www.w3.org/2000/svg" xmlns:xlink="http://www.w3.org/1999/xlink" xmlns:v="https://vecta.io/nano" version="1.1" viewBox="0 0 145.2 155">
  <!-- Generator: Adobe Illustrator 29.2.0, SVG Export Plug-In . SVG Version: 2.1.0 Build 108)  -->
  <defs>
    <style>
      .st0 {
        fill: #4285f4;
      }

      .st1 {
        fill: #fbbc05;
      }

      .st2 {
        fill: #34a853;
      }

      .st3 {
        fill: #ea4335;
      }
    </style>
  </defs>
  <polygon class="st2" points="122.8 12.6 122.8 95.2 99.8 95.2 99.8 35.6 122.8 12.6"/>
  <polygon class="st0" points="72.6 30.3 103 0 103 0 103 0 122.8 0 122.8 15.8 72.6 65.9 72.6 30.3"/>
  <polygon class="st1" points="22.5 12.6 22.5 95.2 45.5 95.2 45.5 35.6 22.5 12.6"/>
  <polygon class="st3" points="72.6 30.3 42.3 0 42.3 0 42.3 0 22.5 0 22.5 15.8 72.6 65.9 72.6 30.3"/>
  <path class="st3" d="M135.2,150.5c-2.6,0-4.4-1.2-5.5-3.6l15.5-6.4-.6-1.5c-1-2.6-3.9-7.4-9.9-7.4s-10.9,4.8-10.9,11.5,4.9,11.5,11.5,11.5,8.3-3.2,9.6-5.2l-4.2-2.2c-1.5,2.2-3.2,3.3-5.5,3.3h0ZM134.8,136.4c2,0,3.8,1,4.4,2.6l-10.3,4.4c-.1-5.1,3.3-7,5.9-7Z"/>
  <path class="st2" d="M115.3,119.7h4.9v35.3h-4.9v-35.3Z"/>
  <path class="st0" d="M101.3,132.1c-2.8,0-4.9,1.2-6.4,2.6h-.1v-14.9h-4.8v12.9h0v22.3h4.9v-2.6h.1c1.2,1.5,3.3,2.6,6.1,2.6,5.8,0,10.7-4.9,10.7-11.5s-4.8-11.5-10.6-11.5ZM100.8,150.5c-3.6,0-6.1-2.9-6.1-7s2.8-7,6.1-7,6.1,2.8,6.1,7c.1,3.9-2.5,7-6.1,7Z"/>
  <path class="st3" d="M48.7,155c2.8,0,4.9-1.2,6.1-2.6h.3v2.6h4.9v-22.3h-4.8v2h-.1c-1.5-1.5-3.6-2.6-6.4-2.6-5.8,0-10.7,4.9-10.7,11.5s5.2,11.5,10.7,11.5ZM49.2,136.6c3.3,0,6.1,2.9,6.1,7s-2.6,7-6.1,7-5.9-2.9-5.9-7c0-4.2,2.6-7,5.9-7Z"/>
  <path class="st1" d="M74.7,155c2.8,0,4.9-1.2,6.1-2.6h.1v2.6h4.9v-22.3h-4.6v2h-.1c-1.5-1.5-3.6-2.6-6.4-2.6-5.8,0-10.7,4.9-10.7,11.5s4.9,11.5,10.7,11.5ZM75.2,136.6c3.3,0,6.1,2.9,6.1,7s-2.6,7-6.1,7-6.1-2.9-6.1-7c-.1-4.2,2.5-7,6.1-7Z"/>
  <polygon class="st0" points="17 143.5 28.9 129.4 29.2 155 34.7 155 34.7 119.7 29.2 119.7 29.2 119.7 17 133.8 5.5 119.7 5.5 119.7 0 119.7 0 155 5.5 155 5.4 129.4 17 143.5"/>
</svg>